<?xml version="1.0" standalone="no"?>
<!DOCTYPE svg PUBLIC "-//W3C//DTD SVG 20010904//EN"
 "http://www.w3.org/TR/2001/REC-SVG-20010904/DTD/svg10.dtd">
<svg version="1.0" xmlns="http://www.w3.org/2000/svg"
 width="300.000000pt" height="300.000000pt" viewBox="0 0 300.000000 300.000000"
 preserveAspectRatio="xMidYMid meet">
<metadata>
Created by potrace 1.10, written by Peter Selinger 2001-2011
</metadata>
<g transform="translate(0.000000,300.000000) scale(0.100000,-0.100000)"
fill="#000000" stroke="none">
<path d="M1438 2225 c-3 -3 -3 -17 0 -31 6 -31 27 -26 27 6 0 22 -15 36 -27
25z"/>
<path d="M1636 2183 c-3 -21 -9 -48 -12 -60 -4 -13 -2 -23 3 -23 5 0 14 17 19
37 l9 37 29 -42 c16 -23 32 -42 36 -42 4 0 10 18 14 39 3 22 9 46 12 55 3 9 1
16 -5 16 -6 0 -11 -11 -11 -25 0 -34 -13 -31 -41 10 -31 45 -45 44 -53 -2z"/>
<path d="M1497 2203 c-14 -13 -6 -43 13 -53 11 -6 20 -15 20 -21 0 -6 -8 -6
-21 1 -24 13 -41 4 -19 -10 33 -21 80 -5 80 27 0 8 -12 19 -27 25 -27 11 -27
12 -5 16 12 2 20 8 17 13 -7 10 -48 12 -58 2z"/>
<path d="M1352 2184 c-12 -8 -20 -20 -17 -25 9 -14 25 -11 25 6 0 17 16 20 25
5 3 -5 -6 -17 -20 -26 -14 -9 -25 -25 -25 -36 0 -18 4 -19 37 -13 51 9 53 11
46 48 -11 58 -31 69 -71 41z"/>
<path d="M1295 2168 c-4 -10 -10 -16 -15 -13 -4 2 -14 -1 -22 -8 -13 -11 -13
-16 6 -49 16 -27 26 -34 36 -28 11 7 12 13 2 35 -9 20 -10 31 -1 41 6 7 9 19
6 26 -3 9 -7 8 -12 -4z"/>
<path d="M1765 2119 c-19 -36 -14 -59 13 -59 10 0 23 -5 28 -10 8 -8 19 2 38
30 23 36 25 41 10 47 -9 3 -20 0 -25 -8 -19 -35 -38 -53 -45 -46 -4 4 0 21 9
36 21 36 21 41 2 41 -8 0 -22 -14 -30 -31z"/>
<path d="M1210 2130 c0 -5 -6 -10 -14 -10 -24 0 -28 -18 -10 -52 21 -42 18
-40 37 -32 15 5 15 9 2 34 -10 18 -11 31 -5 35 13 8 13 35 0 35 -5 0 -10 -4
-10 -10z"/>
<path d="M1872 2069 c-20 -35 -21 -40 -7 -45 10 -4 22 1 31 15 9 12 26 21 40
21 33 0 30 12 -9 31 l-33 17 -22 -39z"/>
<path d="M1103 2078 c-41 -20 -29 -74 19 -91 20 -7 67 27 54 40 -5 4 -11 2
-13 -4 -5 -15 -43 -18 -43 -4 0 5 -3 18 -6 28 -5 14 -4 15 4 4 9 -12 13 -13
26 -2 12 11 14 17 5 27 -13 16 -16 16 -46 2z"/>
<path d="M1960 2035 c-7 -8 -10 -24 -7 -35 3 -11 2 -20 -3 -20 -4 0 -10 10
-13 22 -4 12 -9 19 -13 16 -12 -13 6 -57 27 -63 31 -10 58 19 41 45 -18 29
-15 36 8 15 16 -14 20 -15 20 -4 0 18 -20 39 -36 39 -6 0 -17 -7 -24 -15z"/>
<path d="M1641 2021 c-41 -22 -60 -54 -61 -101 0 -79 27 -97 93 -63 31 16 87
25 87 15 0 -13 -15 -27 -42 -41 -36 -18 -36 -50 -2 -80 14 -12 24 -24 22 -26
-7 -7 -48 7 -48 17 0 5 -7 3 -15 -6 -8 -8 -15 -17 -15 -20 0 -11 47 -30 80
-32 19 -1 54 -6 78 -9 34 -6 42 -5 42 8 0 18 -55 67 -75 67 -7 0 -15 7 -19 15
-3 8 -16 15 -30 15 -14 0 -28 5 -31 10 -3 6 0 10 8 10 8 0 47 15 86 33 77 36
78 38 12 72 -44 22 -101 15 -146 -20 -20 -15 -39 -25 -41 -22 -8 8 14 44 30
50 20 8 51 67 34 67 -6 0 1 14 17 30 l29 30 -30 0 c-16 -1 -44 -9 -63 -19z"/>
<path d="M999 2004 c-23 -28 8 -57 46 -43 6 2 11 0 13 -6 2 -5 -7 -13 -20 -16
-20 -6 -21 -7 -5 -14 19 -8 57 19 57 41 0 22 -31 47 -43 35 -6 -6 -18 -11 -26
-11 -13 1 -12 4 3 15 16 12 17 15 4 15 -8 0 -21 -7 -29 -16z"/>
<path d="M2020 1960 c-11 -11 -20 -28 -20 -38 0 -22 37 -59 48 -47 4 4 1 10
-5 12 -14 5 -18 43 -5 43 4 0 17 -7 28 -15 36 -25 49 18 16 48 -24 22 -38 21
-62 -3z"/>
<path d="M926 1924 c-16 -41 5 -74 48 -74 20 0 46 28 46 48 -1 15 -2 15 -11 0
-5 -10 -17 -18 -24 -18 -17 0 -20 26 -5 35 19 12 10 25 -19 25 -17 0 -31 -6
-35 -16z"/>
<path d="M1388 1924 c-3 -3 5 -25 19 -49 20 -36 31 -46 61 -51 63 -11 68 -20
18 -33 -56 -14 -106 -74 -106 -128 0 -18 2 -33 5 -33 2 0 24 19 48 43 24 23
60 51 80 62 39 21 48 35 22 35 -13 0 -14 4 -4 21 9 18 7 25 -15 44 -14 12 -26
27 -26 33 0 17 28 8 48 -16 11 -12 24 -22 31 -22 6 0 11 -5 11 -12 0 -6 3 -9
6 -6 3 3 -4 24 -15 47 -22 42 -78 82 -90 62 -4 -6 -12 -7 -21 -1 -16 11 -63
13 -72 4z"/>
<path d="M2080 1874 c-14 -10 -26 -18 -28 -19 -1 -1 0 -9 4 -18 5 -15 8 -15
30 0 19 12 28 13 37 4 14 -14 37 -15 37 -1 0 6 -6 10 -14 10 -8 0 -13 8 -12
17 2 24 -24 27 -54 7z"/>
<path d="M831 1821 c-9 -17 -4 -22 46 -42 55 -22 56 -22 70 -3 26 34 34 54 24
54 -6 0 -14 -8 -20 -17 -9 -17 -12 -16 -55 5 -56 27 -53 26 -65 3z"/>
<path d="M2130 1785 c-37 -27 -56 -31 -62 -13 -2 6 -10 9 -16 7 -10 -3 -10 -8
0 -21 17 -21 138 -31 138 -11 0 7 -8 13 -17 13 -13 0 -14 3 -5 12 14 14 16 38
4 38 -4 0 -23 -11 -42 -25z"/>
<path d="M1170 1743 c-15 -10 -39 -16 -67 -14 -58 3 -55 -15 3 -22 34 -3 51
-1 63 12 10 9 26 21 37 28 15 9 15 12 4 12 -9 1 -26 -7 -40 -16z"/>
<path d="M1523 1703 c-17 -22 -24 -38 -16 -40 8 -3 8 -14 1 -39 -5 -20 -7 -43
-3 -52 5 -14 10 -11 23 13 9 17 33 52 52 78 l35 49 3 -62 c4 -74 -10 -143 -43
-224 -13 -33 -23 -61 -22 -62 1 -1 30 -4 64 -8 62 -7 62 -7 78 24 17 33 83
110 94 110 3 0 4 -23 2 -51 -2 -40 0 -50 10 -47 8 3 19 19 24 36 15 43 25 51
25 18 0 -17 4 -25 11 -20 7 4 9 21 6 41 -5 30 -4 33 9 22 12 -9 20 -9 39 1 14
7 25 17 25 21 0 12 -36 29 -61 29 -16 0 -20 5 -16 20 3 12 -3 30 -14 43 -17
20 -18 21 -19 3 0 -18 -1 -18 -18 -3 -10 10 -29 17 -41 17 -21 0 -21 -1 -7
-22 9 -12 16 -30 16 -40 0 -15 -4 -16 -24 -6 -14 6 -33 8 -42 4 -14 -6 -11
-10 16 -25 46 -24 47 -35 6 -61 -20 -12 -50 -38 -67 -58 -28 -33 -31 -34 -25
-12 26 107 28 143 17 230 -6 50 -9 95 -5 101 5 8 -43 3 -55 -7 -1 -1 -14 1
-27 6 -20 8 -27 4 -51 -27z m313 -186 c1 -9 -4 -17 -12 -17 -8 0 -14 2 -14 4
0 2 -3 11 -6 19 -4 11 0 15 12 13 9 -2 18 -10 20 -19z"/>
<path d="M1060 1672 c0 -6 13 -13 28 -17 15 -3 48 -19 72 -35 41 -27 46 -28
62 -13 10 9 41 22 70 29 l53 12 -55 1 c-30 0 -61 -3 -68 -8 -9 -5 -28 -1 -51
9 -47 23 -111 36 -111 22z"/>
<path d="M1335 1604 c-5 -1 -26 -5 -46 -8 -93 -16 -163 -132 -138 -230 6 -25
14 -46 16 -46 3 0 31 7 62 14 64 17 254 36 282 29 17 -5 19 1 19 46 0 93 -59
169 -145 189 -22 5 -44 8 -50 6z m84 -55 c44 -25 77 -73 80 -117 2 -38 0 -39
-99 -47 -97 -7 -142 -15 -157 -27 -25 -20 -57 -5 -64 30 -4 17 -3 32 2 32 5 0
5 7 2 17 -4 10 -2 14 5 9 7 -4 9 2 7 16 -5 27 -1 33 48 76 32 27 46 32 88 32
33 0 64 -7 88 -21z"/>
<path d="M1365 1329 c-91 -12 -278 -49 -287 -57 -4 -4 0 -16 8 -26 13 -19 16
-19 66 -3 67 20 152 35 251 43 42 3 75 9 73 13 -3 4 31 7 75 7 43 0 79 -4 79
-9 0 -5 7 -7 14 -4 10 4 13 1 9 -9 -3 -9 -13 -14 -24 -11 -11 3 -22 1 -25 -4
-3 -5 -10 -7 -15 -4 -5 4 -9 1 -9 -4 0 -6 8 -11 18 -11 262 -6 247 -7 250 17
3 19 -5 24 -50 38 -99 31 -294 41 -433 24z"/>
<path d="M1400 1263 c-23 -4 -160 -39 -188 -48 -10 -4 -10 -10 -1 -27 6 -13
12 -24 13 -25 1 -1 24 4 50 12 27 8 85 18 129 21 67 6 77 9 58 18 -16 7 -21
16 -18 33 2 13 0 22 -7 22 -6 -1 -22 -4 -36 -6z"/>
<path d="M1574 1215 c3 -9 0 -15 -9 -15 -8 0 -15 -4 -15 -9 0 -5 -19 -8 -42
-7 -42 3 -104 -10 -161 -33 -28 -11 -28 -11 -10 -34 l17 -24 56 26 c45 20 76
26 165 31 104 5 110 6 113 27 3 19 -5 24 -49 37 -65 20 -73 20 -65 1z"/>
</g>
</svg>
